<svg xmlns="http://www.w3.org/2000/svg" viewBox="0 0 800 800" width="800" height="800"><rect width="800" height="800" fill="#f3f1ea"/><rect x="120" y="120" width="560" height="560" fill="#141416"/><circle cx="400" cy="400" r="240" fill="#8fc9a8"/><circle cx="400" cy="400" r="235" fill="none" stroke="#141416" stroke-width="2" stroke-dasharray="1 5"/><circle cx="400" cy="400" r="80" fill="#f3f1ea"/><circle cx="400" cy="400" r="6" fill="#141416"/><g transform="translate(400 370) scale(0.22)" fill="none" stroke-width="7" stroke-linejoin="round" stroke-linecap="round" stroke="#141416"><path d="M-40 200l20-200h40l20 200z"/><path d="M-28 0h56M-34 60h68M-38 120h76"/><rect x="-24" y="-50" width="48" height="50"/><path d="M-30-50l30-30 30 30"/><path d="M-70-30l-40-10M70-30l40-10M-60-70l-30-30M60-70l30-30"/></g><text x="400" y="640" font-family="Helvetica, Arial, sans-serif" font-size="30" font-weight="700" fill="#f3f1ea" text-anchor="middle" letter-spacing="8">HARBOR LIGHTS</text></svg>
